<svg xmlns="http://www.w3.org/2000/svg" viewBox="0 0 30 18">
    <g fill="none">
        <path fill="#EA4403" d="M17.796 11.849l1.545 1.784-.703 1.412-3.895-.193-.063-1.09 1.277.256 1.787.128.064-.449-2.362-1.155 2.35-.693zM3.442 7.343l-2.17.77-.511-.577-.256.064.576 1.09 2.809-.77-.448-.577zm6.37 7.796l.408 1.082 2.108.962.181.616h1.045l-.534-1.15-1.851-1.026.063-3.338-4.597-1.412-.191.77 3.368 3.496z"></path>
        <path fill="#FF5000" d="M17.808 17.799h-1.02l-.64-1.021 1.341-4.942 1.15-.065-1.39 4.915.56 1.113zM3.506 9.91v2.823l-.702.064.958 5.006h1.086l-.128-.77-.511-2.888 2.434-2.556.439-.46L3.506 9.91z"></path>
        <path fill="#FF5000" d="M23.81 10.616v.578l-2.138 2.15h-.99v-2.085l-2.885.718-4.586 1.143-9.704-3.145-.065-2.632L8.36 4.84 17.3.026l6.511 6.482v2.504h2.681z"></path>
        </g>
</svg>